<svg width="40" height="40" viewBox="0 0 40 40" fill="none" xmlns="http://www.w3.org/2000/svg">
<path d="M19.9998 1.66669C16.3739 1.66669 12.8293 2.74192 9.81439 4.75641C6.79949 6.7709 4.44966 9.63418 3.06205 12.9842C1.67445 16.3341 1.31139 20.0204 2.01878 23.5767C2.72618 27.133 4.47226 30.3997 7.03622 32.9636C9.60018 35.5276 12.8669 37.2737 16.4232 37.9811C19.9795 38.6885 23.6657 38.3254 27.0157 36.9378C30.3657 35.5502 33.229 33.2004 35.2435 30.1855C37.2579 27.1706 38.3332 23.626 38.3332 20C38.3332 15.1377 36.4016 10.4746 32.9635 7.0364C29.5253 3.59823 24.8621 1.66669 19.9998 1.66669ZM19.9998 35C17.0331 35 14.133 34.1203 11.6663 32.4721C9.19955 30.8238 7.27697 28.4812 6.14165 25.7403C5.00634 22.9994 4.70929 19.9834 5.28807 17.0737C5.86684 14.164 7.29546 11.4912 9.39324 9.39342C11.491 7.29563 14.1638 5.86702 17.0735 5.28824C19.9832 4.70946 22.9992 5.00651 25.7401 6.14183C28.481 7.27714 30.8237 9.19973 32.4719 11.6665C34.1201 14.1332 34.9998 17.0333 34.9998 20C34.9998 23.9783 33.4195 27.7936 30.6064 30.6066C27.7934 33.4197 23.9781 35 19.9998 35Z" fill="black"/>
<path d="M21.6668 11.6667C21.6668 10.7462 20.9206 10 20.0002 10C19.0797 10 18.3335 10.7462 18.3335 11.6667L18.3335 20C18.3335 20.9205 19.0797 21.6667 20.0002 21.6667C20.9206 21.6667 21.6668 20.9205 21.6668 20L21.6668 11.6667Z" fill="black"/>
<path d="M21.6668 20C21.6668 19.0795 20.9206 18.3333 20.0002 18.3333C19.0797 18.3333 18.3335 19.0795 18.3335 20L18.3335 31.6666C18.3335 32.5871 19.0797 33.3333 20.0002 33.3333C20.9206 33.3333 21.6668 32.5871 21.6668 31.6666L21.6668 20Z" fill="black"/>
</svg>
