<svg width="36" height="38" viewBox="0 0 36 38" fill="none" xmlns="http://www.w3.org/2000/svg">
<rect width="30" height="30" transform="translate(3 3)" fill="white"/>
<path d="M16.9435 34.0648L18 35.1131L19.0565 34.0648L21.2294 31.9088L21.2315 31.9068L21.2612 31.8774C25.0828 28.1004 28.369 24.8526 30.6844 21.7651C33.0257 18.6432 34.5 15.526 34.5 11.9918C34.5 6.23397 30.3157 1.5 24.75 1.5C22.2255 1.5 19.8257 2.5328 18 4.20373C16.1743 2.5328 13.7745 1.5 11.25 1.5C5.68431 1.5 1.5 6.23397 1.5 11.9918C1.5 15.526 2.97434 18.6432 5.31559 21.7651C7.63104 24.8526 10.9172 28.1005 14.7388 31.8774L14.7685 31.9068L14.7706 31.9088L16.9435 34.0648Z" fill="white" stroke="black" stroke-width="3"/>
<path d="M16.9435 34.0648L18 35.1131L19.0565 34.0648L21.2294 31.9088L21.2315 31.9068L21.2612 31.8774C25.0827 28.1005 28.369 24.8526 30.6844 21.7651C33.0257 18.6432 34.5 15.526 34.5 11.9918C34.5 6.23397 30.3157 1.5 24.75 1.5C22.2255 1.5 19.8257 2.5328 18 4.20373C16.1743 2.5328 13.7745 1.5 11.25 1.5C5.68431 1.5 1.5 6.23397 1.5 11.9918C1.5 15.526 2.97434 18.6432 5.31559 21.7651C7.63104 24.8526 10.9172 28.1005 14.7388 31.8774L14.7685 31.9068L14.7706 31.9088L16.9435 34.0648Z" fill="white" stroke="black" stroke-width="3"/>
</svg>
