<svg width="40" height="40" viewBox="0 0 40 40" fill="none" xmlns="http://www.w3.org/2000/svg">
<path d="M17.5 9.99998C17.5 11.3261 16.9732 12.5978 16.0355 13.5355C15.0979 14.4732 13.8261 15 12.5 15C11.1739 15 9.90215 14.4732 8.96447 13.5355C8.02678 12.5978 7.5 11.3261 7.5 9.99998C7.5 8.6739 8.02678 7.40213 8.96447 6.46445C9.90215 5.52676 11.1739 4.99998 12.5 4.99998C13.8261 4.99998 15.0979 5.52676 16.0355 6.46445C16.9732 7.40213 17.5 8.6739 17.5 9.99998ZM7.91667 16.6666C7.14312 16.6666 6.40125 16.9739 5.85427 17.5209C5.30729 18.0679 5 18.8098 5 19.5833V27.5C5 29.4891 5.79018 31.3968 7.1967 32.8033C8.60322 34.2098 10.5109 35 12.5 35C14.4891 35 16.3968 34.2098 17.8033 32.8033C19.2098 31.3968 20 29.4891 20 27.5V19.5833C20 18.8098 19.6927 18.0679 19.1457 17.5209C18.5987 16.9739 17.8569 16.6666 17.0833 16.6666H7.91667ZM18.1 34.7566C19.2107 33.9012 20.11 32.8019 20.7284 31.5437C21.3468 30.2854 21.6678 28.902 21.6667 27.5V19.5833C21.6667 18.475 21.2733 17.46 20.6183 16.6666H24.5833C26.1933 16.6666 27.5 17.9733 27.5 19.5833V27.5C27.5002 28.6469 27.2374 29.7786 26.7317 30.808C26.226 31.8375 25.491 32.7372 24.5831 33.4381C23.6752 34.1389 22.6187 34.6222 21.4948 34.8508C20.3709 35.0794 19.2095 35.0472 18.1 34.7566ZM19.1667 9.99998C19.1667 11.6666 18.555 13.1883 17.545 14.3566C18.3058 14.7848 19.1655 15.0062 20.0384 14.999C20.9114 14.9917 21.7673 14.7561 22.5209 14.3154C23.2745 13.8747 23.8996 13.2444 24.334 12.4872C24.7684 11.7299 24.997 10.8721 24.997 9.99915C24.997 9.12615 24.7684 8.26836 24.334 7.51112C23.8996 6.75388 23.2745 6.12358 22.5209 5.6829C21.7673 5.24223 20.9114 5.00656 20.0384 4.99932C19.1655 4.99208 18.3058 5.21353 17.545 5.64165C18.555 6.81165 19.1667 8.33498 19.1667 9.99998ZM25.6 34.7566C26.7107 33.9012 27.61 32.8019 28.2284 31.5437C28.8468 30.2854 29.1678 28.902 29.1667 27.5V19.5833C29.1667 18.475 28.7733 17.46 28.1183 16.6666H32.0833C33.6933 16.6666 35 17.9733 35 19.5833V27.5C35.0002 28.6469 34.7374 29.7786 34.2317 30.808C33.726 31.8375 32.991 32.7372 32.0831 33.4381C31.1752 34.1389 30.1187 34.6222 28.9948 34.8508C27.8709 35.0794 26.7095 35.0472 25.6 34.7566ZM26.6667 9.99998C26.6667 11.6666 26.055 13.1883 25.045 14.3566C25.8058 14.7848 26.6655 15.0062 27.5384 14.999C28.4114 14.9917 29.2673 14.7561 30.0209 14.3154C30.7745 13.8747 31.3996 13.2444 31.834 12.4872C32.2684 11.7299 32.497 10.8721 32.497 9.99915C32.497 9.12615 32.2684 8.26836 31.834 7.51112C31.3996 6.75388 30.7745 6.12358 30.0209 5.6829C29.2673 5.24223 28.4114 5.00656 27.5384 4.99932C26.6655 4.99208 25.8058 5.21353 25.045 5.64165C26.055 6.81331 26.6667 8.33665 26.6667 9.99998Z" fill="black"/>
</svg>
